<?xml version="1.0" encoding="UTF-8"?>
<svg version="1.1" xmlns="http://www.w3.org/2000/svg" width="149" height="149">
<path d="M0 0 C4.4514664 2.10858935 7.37957047 4.82672334 10 9 C10.38387712 11.32555239 10.7228513 13.65932827 11 16 C11.88042969 15.4946875 12.76085937 14.989375 13.66796875 14.46875 C14.84083511 13.81194484 16.01402972 13.15572557 17.1875 12.5 C18.33605469 11.8503125 19.48460938 11.200625 20.66796875 10.53125 C25.66082555 8.23676012 25.66082555 8.23676012 29 9 C33.11421299 13.0237003 35.85042732 18.49452767 38.75 23.4375 C39.25660156 24.27087891 39.76320313 25.10425781 40.28515625 25.96289062 C44.94180682 33.90178951 44.94180682 33.90178951 44 39 C40.18312709 43.12634909 35.52573613 45.45814436 30.59375 48.06640625 C25.81729426 50.60776167 21.13336317 53.31364455 16.4375 56 C15.12640259 56.74745483 15.12640259 56.74745483 13.78881836 57.51000977 C12.92909424 58.00170654 12.06937012 58.49340332 11.18359375 59 C10.42618896 59.433125 9.66878418 59.86625 8.88842773 60.3125 C4.5689624 62.83605206 0.28599848 65.42012355 -4 68 C-2.9985495 68.00879936 -2.9985495 68.00879936 -1.97686768 68.01777649 C4.96622305 68.08166521 11.90884831 68.16607348 18.8515625 68.26245117 C21.44329699 68.29572432 24.03510435 68.32374871 26.62695312 68.34643555 C30.35057664 68.37993675 34.07353081 68.43225223 37.796875 68.48828125 C39.53768341 68.49786613 39.53768341 68.49786613 41.31365967 68.50764465 C42.93488739 68.53733589 42.93488739 68.53733589 44.58886719 68.56762695 C46.01449982 68.58428154 46.01449982 68.58428154 47.46893311 68.60127258 C50.58998524 69.09294235 51.90231084 69.61528931 54 72 C54.48774719 75.19459534 54.48774719 75.19459534 54.4699707 79.19360352 C54.4732563 80.28671844 54.4732563 80.28671844 54.47660828 81.4019165 C54.47892036 83.81137436 54.45266147 86.21961127 54.42578125 88.62890625 C54.42085842 90.30134188 54.41755884 91.97378301 54.41581726 93.64622498 C54.40817459 97.15096635 54.38760502 100.65529973 54.35668945 104.15991211 C54.31708387 108.6582506 54.29907626 113.15632366 54.28938007 117.65481663 C54.27941811 121.93788266 54.25952027 126.22088349 54.23828125 130.50390625 C54.23318763 131.73479068 54.23318763 131.73479068 54.2279911 132.99054146 C54.21644384 135.30570405 54.19792786 137.62069651 54.17700195 139.93579102 C54.16715775 141.25466812 54.15731354 142.57354523 54.14717102 143.93238831 C54 147 54 147 53 149 C21.65 149 -9.7 149 -42 149 C-43.28843205 146.4231359 -43.16003433 144.51781241 -43.20532227 141.63232422 C-43.22526749 140.51131317 -43.24521271 139.39030212 -43.26576233 138.23532104 C-43.28247482 137.02071198 -43.29918732 135.80610291 -43.31640625 134.5546875 C-43.33718735 133.31453888 -43.35796844 132.07439026 -43.37937927 130.79666138 C-43.43377705 127.49888177 -43.48400095 124.2010728 -43.53222656 120.90319824 C-43.58245234 117.53827347 -43.63813277 114.1734395 -43.69335938 110.80859375 C-43.80061557 104.20580146 -43.90237189 97.60294128 -44 91 C-44.76256104 91.49234131 -45.52512207 91.98468262 -46.31079102 92.49194336 C-49 94 -49 94 -52.02734375 94.12890625 C-56.20309296 92.54310924 -57.56088646 89.7043974 -59.5625 85.9375 C-60.33241994 84.56068674 -61.10324562 83.18437957 -61.875 81.80859375 C-62.23851562 81.14714355 -62.60203125 80.48569336 -62.9765625 79.80419922 C-64.54154353 77.04532284 -66.35736189 74.46867457 -68.22265625 71.90625 C-69.53038355 68.69936095 -69.50568162 66.41241446 -69 63 C-66.75161934 61.07590502 -65.05780823 59.894581 -62.5 58.5625 C-61.87996094 58.21251953 -61.25992188 57.86253906 -60.62109375 57.50195312 C-59.0937775 56.64430631 -57.54844287 55.81888806 -56 55 C-56.433125 54.50113281 -56.86625 54.00226562 -57.3125 53.48828125 C-61.78970632 47.71558699 -62.8216645 43.23664273 -62.45703125 35.9609375 C-61.6557888 30.76998216 -59.31933996 28.24990102 -55.625 24.75 C-50.94650226 21.63100151 -46.94232049 20.43240259 -41.2890625 21.31640625 C-35.39473761 23.07665686 -30.0840002 26.61066653 -25 30 C-25.04640625 28.9378125 -25.0928125 27.875625 -25.140625 26.78125 C-25.61182588 11.56793612 -25.61182588 11.56793612 -21 6 C-14.56193009 -0.5037645 -8.89665244 -0.780218 0 0 Z M-14 13 C-16.58476417 18.16952834 -14.93847483 25.48646037 -14 31 C-12.05652964 30.0960603 -10.12040093 29.176325 -8.1875 28.25 C-7.10855469 27.73953125 -6.02960937 27.2290625 -4.91796875 26.703125 C-1.44070054 24.6735548 0.19531899 22.72431645 1.875 19.125 C2.07174113 15.78040076 0.75489186 13.78362158 -1 11 C-6.18875174 7.43273318 -9.31611892 9.53800094 -14 13 Z M-50 33 C-52.15482086 35.65761239 -53.02142679 37.12150148 -52.9375 40.5625 C-51.77674484 43.5804634 -50.55041543 45.01634355 -48 47 C-45.35743316 48.17447415 -43.83430385 48.30919335 -41.11328125 47.30078125 C-36.82839811 45.23587566 -32.89136852 42.72395797 -29 40 C-34.95518261 34.64033565 -42.28360834 29.14180417 -50 33 Z " fill="#FE641A" transform="translate(69,0)"/>
<path d="M0 0 C4.34159838 -0.07429025 8.6828577 -0.12866741 13.02490234 -0.16479492 C14.50120491 -0.17985923 15.97746288 -0.20031482 17.45361328 -0.22631836 C19.57856258 -0.26280739 21.70291901 -0.27974933 23.828125 -0.29296875 C25.7447998 -0.31653442 25.7447998 -0.31653442 27.70019531 -0.34057617 C31.361945 0.03735671 32.50047829 0.35627793 35 3 C35.48774719 6.19459534 35.48774719 6.19459534 35.4699707 10.19360352 C35.4732563 11.28671844 35.4732563 11.28671844 35.47660828 12.4019165 C35.47892036 14.81137436 35.45266147 17.21961127 35.42578125 19.62890625 C35.42085842 21.30134188 35.41755884 22.97378301 35.41581726 24.64622498 C35.40817459 28.15096635 35.38760502 31.65529973 35.35668945 35.15991211 C35.31708387 39.6582506 35.29907626 44.15632366 35.28938007 48.65481663 C35.27941811 52.93788266 35.25952027 57.22088349 35.23828125 61.50390625 C35.23318763 62.73479068 35.23318763 62.73479068 35.2279911 63.99054146 C35.21644384 66.30570405 35.19792786 68.62069651 35.17700195 70.93579102 C35.16715775 72.25466812 35.15731354 73.57354523 35.14717102 74.93238831 C35 78 35 78 34 80 C2.65 80 -28.7 80 -61 80 C-64.28677223 73.42645554 -62.63830106 62.7922731 -62.75568962 55.56345177 C-62.81223942 52.13124889 -62.89358833 48.70374389 -63.03564453 45.27392578 C-63.92505408 23.24823072 -63.92505408 23.24823072 -60.84197998 18.04602051 C-57.51582727 14.68960061 -53.39788321 13.41608037 -49 12 C-47.19824661 10.98625864 -45.42119451 9.92656469 -43.6796875 8.8125 C-42.07913835 7.873271 -40.47759858 6.93572779 -38.875 6 C-37.64136719 5.26716797 -37.64136719 5.26716797 -36.3828125 4.51953125 C-35.59390625 4.05933594 -34.805 3.59914063 -33.9921875 3.125 C-33.29464355 2.71507813 -32.59709961 2.30515625 -31.87841797 1.8828125 C-30 1 -30 1 -27 1 C-26.98786972 1.93294388 -26.98786972 1.93294388 -26.97549438 2.88473511 C-26.88963493 9.34085016 -26.79014024 15.79665154 -26.68261719 22.25244141 C-26.64426353 24.66384628 -26.6094221 27.07530962 -26.578125 29.48681641 C-26.53261297 32.94715313 -26.47459596 36.40708508 -26.4140625 39.8671875 C-26.40251129 40.95055389 -26.39096008 42.03392029 -26.37905884 43.15011597 C-26.35918915 44.1510025 -26.33931946 45.15188904 -26.31884766 46.18310547 C-26.30552399 47.06690887 -26.29220032 47.95071228 -26.2784729 48.86129761 C-26.19330996 51.2132825 -26.19330996 51.2132825 -24 53 C-19.05218502 52.8625607 -16.4991712 50.1736669 -13 47 C-12.62488281 47.44472656 -12.24976563 47.88945313 -11.86328125 48.34765625 C-10.31452415 50.06026171 -8.83506869 51.5956986 -7 53 C-4.37328813 52.94162863 -2.88893674 52.88893674 -1 51 C-0.87727151 49.40486107 -0.82218957 47.80445068 -0.79467773 46.20483398 C-0.77473251 45.18385117 -0.75478729 44.16286835 -0.73423767 43.11094666 C-0.71752518 42.0005452 -0.70081268 40.89014374 -0.68359375 39.74609375 C-0.66281265 38.61551041 -0.64203156 37.48492706 -0.62062073 36.32008362 C-0.55500203 32.69262015 -0.49618323 29.06508167 -0.4375 25.4375 C-0.39432649 22.98501814 -0.3507126 20.532544 -0.30664062 18.08007812 C-0.19930816 12.05346573 -0.0975651 6.02677799 0 0 Z " fill="#D0004E" transform="translate(88,69)"/>
<path d="M0 0 C0.01213028 0.93294388 0.01213028 0.93294388 0.02450562 1.88473511 C0.11036507 8.34085016 0.20985976 14.79665154 0.31738281 21.25244141 C0.35573647 23.66384628 0.3905779 26.07530962 0.421875 28.48681641 C0.46738703 31.94715313 0.52540404 35.40708508 0.5859375 38.8671875 C0.59748871 39.95055389 0.60903992 41.03392029 0.62094116 42.15011597 C0.64081085 43.1510025 0.66068054 44.15188904 0.68115234 45.18310547 C0.69447601 46.06690887 0.70779968 46.95071228 0.7215271 47.86129761 C0.80669004 50.2132825 0.80669004 50.2132825 3 52 C7.81008493 51.73999541 8.90328105 50.27737516 13 47 C13 57.56 13 68.12 13 79 C-2.51 79 -18.02 79 -34 79 C-37.28677223 72.42645554 -35.63830106 61.7922731 -35.75568962 54.56345177 C-35.81223942 51.13124889 -35.89358833 47.70374389 -36.03564453 44.27392578 C-36.92505408 22.24823072 -36.92505408 22.24823072 -33.84197998 17.04602051 C-30.51582727 13.68960061 -26.39788321 12.41608037 -22 11 C-20.19824661 9.98625864 -18.42119451 8.92656469 -16.6796875 7.8125 C-15.07913835 6.873271 -13.47759858 5.93572779 -11.875 5 C-10.64136719 4.26716797 -10.64136719 4.26716797 -9.3828125 3.51953125 C-8.59390625 3.05933594 -7.805 2.59914063 -6.9921875 2.125 C-5.94587158 1.51011719 -5.94587158 1.51011719 -4.87841797 0.8828125 C-3 0 -3 0 0 0 Z " fill="#E6394F" transform="translate(61,70)"/>
<path d="M0 0 C8.91 0 17.82 0 27 0 C27.06879902 7.20860811 27.12855586 14.41608124 27.16479492 21.62475586 C27.17989881 24.07792008 27.20038321 26.53105724 27.22631836 28.98413086 C27.26263057 32.50641555 27.27971036 36.02834381 27.29296875 39.55078125 C27.30845261 40.65086014 27.32393646 41.75093903 27.33988953 42.88435364 C27.34011612 43.90518539 27.34034271 44.92601715 27.34057617 45.9777832 C27.34723801 46.87713089 27.35389984 47.77647858 27.36076355 48.70307922 C26.92733064 51.46267358 26.23465126 52.36713185 24 54 C19.09930497 54 16.44786742 51.12713557 13 48 C12.43732422 48.66708984 12.43732422 48.66708984 11.86328125 49.34765625 C10.31579372 51.05885782 8.82973974 52.59217672 7 54 C4.25 54 4.25 54 2 53 C0 51 0 51 -0.24050903 48.82333374 C-0.23606781 47.92176544 -0.23162659 47.02019714 -0.22705078 46.09130859 C-0.22689972 45.07040131 -0.22674866 44.04949402 -0.22659302 42.99765015 C-0.21627045 41.89240997 -0.20594788 40.7871698 -0.1953125 39.6484375 C-0.1924826 38.5192691 -0.18965271 37.39010071 -0.18673706 36.22671509 C-0.17551462 32.60937029 -0.15040622 28.99227034 -0.125 25.375 C-0.11497287 22.9270869 -0.10584656 20.47916993 -0.09765625 18.03125 C-0.07726755 12.02066241 -0.03812224 6.01060626 0 0 Z " fill="#FDB14B" transform="translate(61,69)"/>
<path d="M0 0 C4.11421299 4.0237003 6.85042732 9.49452767 9.75 14.4375 C10.25660156 15.27087891 10.76320312 16.10425781 11.28515625 16.96289062 C15.94180682 24.90178951 15.94180682 24.90178951 15 30 C11.15869314 34.15276418 6.4590264 36.49681185 1.48828125 39.109375 C-1.32274768 40.63293379 -4.07868587 42.20480845 -6.83203125 43.828125 C-8.10784058 44.57908447 -8.10784058 44.57908447 -9.40942383 45.34521484 C-11.12173777 46.35636923 -12.83127352 47.37224471 -14.5378418 48.39306641 C-15.72567261 49.09181885 -15.72567261 49.09181885 -16.9375 49.8046875 C-18.00291016 50.43866455 -18.00291016 50.43866455 -19.08984375 51.08544922 C-21 52 -21 52 -24 52 C-24.0988093 46.35836923 -24.17143996 40.71724101 -24.21972656 35.07495117 C-24.23985348 33.15526559 -24.2671579 31.23564138 -24.30175781 29.31616211 C-24.3502293 26.55827704 -24.37295742 23.80120173 -24.390625 21.04296875 C-24.41127014 20.18350143 -24.43191528 19.32403412 -24.45318604 18.43852234 C-24.45542888 12.49517646 -24.45542888 12.49517646 -22.10058594 9.93481445 C-20 9 -20 9 -18 9 C-18 8.34 -18 7.68 -18 7 C-15.94414903 5.82006797 -13.88163459 4.65621545 -11.8125 3.5 C-10.08966797 2.52546875 -10.08966797 2.52546875 -8.33203125 1.53125 C-3.33917445 -0.76323988 -3.33917445 -0.76323988 0 0 Z " fill="#E63A4E" transform="translate(98,9)"/>
<path d="M0 0 C3.5625 1.6875 3.5625 1.6875 6 4 C6.763125 4.721875 7.52625 5.44375 8.3125 6.1875 C10.61578856 10.02631426 10.80782995 13.58969737 11 18 C9.3811004 19.03048037 7.75467511 20.04914678 6.125 21.0625 C5.22007813 21.63097656 4.31515625 22.19945313 3.3828125 22.78515625 C2.59648438 23.18605469 1.81015625 23.58695313 1 24 C0.34 23.67 -0.32 23.34 -1 23 C-0.62875 22.113125 -0.2575 21.22625 0.125 20.3125 C1.24658929 17.10238547 1.24658929 17.10238547 0.375 14.25 C-1.22241875 11.63604205 -2.06414099 10.83881686 -5 10 C-8.06930872 10.15346544 -9.66187014 10.76203428 -12.17578125 12.53125 C-14.79121575 16.07076736 -14.06255987 19.21236998 -13.6875 23.375 C-13.3163093 31.0849063 -13.3163093 31.0849063 -15.77734375 34.37890625 C-18.16530645 35.96425919 -20.30143311 37.03858397 -23 38 C-23.96421875 38.44085938 -24.9284375 38.88171875 -25.921875 39.3359375 C-29 40 -29 40 -32.0703125 38.69921875 C-33.07835938 38.03535156 -34.08640625 37.37148438 -35.125 36.6875 C-39.73801886 33.54156129 -39.73801886 33.54156129 -45 32 C-47.9494433 32.77247324 -49.51802221 33.36466565 -51.375 35.8125 C-52.17851927 38.62481745 -51.92185671 40.23442987 -51 43 C-49.96040481 44.87359395 -49.96040481 44.87359395 -48 46 C-44.38976901 46.73041853 -44.38976901 46.73041853 -41 47 C-43.25273711 49.43986543 -45.5734969 51.13659937 -48.4375 52.8125 C-49.19933594 53.27269531 -49.96117187 53.73289063 -50.74609375 54.20703125 C-53 55 -53 55 -55.1484375 54.29296875 C-58.2159309 52.15090058 -60.33486082 49.33027837 -62 46 C-62.49328755 40.14524289 -62.85744288 34.81015719 -60.3125 29.4375 C-56.26475397 25.17095689 -52.85236559 22.26227493 -47 21 C-38.47895311 21 -31.92891118 25.38072588 -25 30 C-25.04640625 28.9378125 -25.0928125 27.875625 -25.140625 26.78125 C-25.61182588 11.56793612 -25.61182588 11.56793612 -21 6 C-14.56193009 -0.5037645 -8.89665244 -0.780218 0 0 Z " fill="#FDD742" transform="translate(69,0)"/>
<path d="M0 0 C8.58 0 17.16 0 26 0 C26 0.33 26 0.66 26 1 C21.71 1 17.42 1 13 1 C13.0314209 2.39234863 13.0628418 3.78469727 13.09521484 5.21923828 C13.20400146 10.39624801 13.27276566 15.5731572 13.32958984 20.75097656 C13.35972103 22.98975629 13.40063465 25.22841837 13.45263672 27.46679688 C13.52561067 30.68909755 13.55949368 33.90983492 13.5859375 37.1328125 C13.61690521 38.12991241 13.64787292 39.12701233 13.67977905 40.15432739 C13.68210281 44.97694418 13.54800772 48.07992024 10.13525391 51.67919922 C7 54 7 54 4.25 54 C2 53 2 53 0 51 C-0.24050903 48.82333374 -0.24050903 48.82333374 -0.22705078 46.09130859 C-0.22689972 45.07040131 -0.22674866 44.04949402 -0.22659302 42.99765015 C-0.21627045 41.89240997 -0.20594788 40.7871698 -0.1953125 39.6484375 C-0.1924826 38.5192691 -0.18965271 37.39010071 -0.18673706 36.22671509 C-0.17551462 32.60937029 -0.15040622 28.99227034 -0.125 25.375 C-0.11497287 22.9270869 -0.10584656 20.47916993 -0.09765625 18.03125 C-0.07726755 12.02066241 -0.03812224 6.01060626 0 0 Z " fill="#FDD343" transform="translate(61,69)"/>
<path d="M0 0 C0.33 2.31 0.66 4.62 1 7 C2.423125 6.938125 2.423125 6.938125 3.875 6.875 C7 7 7 7 9 9 C9.25 12 9.25 12 9 15 C7 17 7 17 3.875 17.125 C2.451875 17.063125 2.451875 17.063125 1 17 C1.061875 17.928125 1.12375 18.85625 1.1875 19.8125 C1 23 1 23 -0.1875 24.9375 C-2 26 -2 26 -4.5625 25.8125 C-7 25 -7 25 -9 23 C-9.125 19.875 -9.125 19.875 -9 17 C-9.928125 17.061875 -10.85625 17.12375 -11.8125 17.1875 C-15 17 -15 17 -16.9375 15.875 C-18 14 -18 14 -17.8125 10.875 C-17.544375 9.92625 -17.27625 8.9775 -17 8 C-14.29120665 6.64560332 -11.99066732 6.93498549 -9 7 C-9.020625 6.05125 -9.04125 5.1025 -9.0625 4.125 C-9 1 -9 1 -8 -1 C-4.37673261 -2.2077558 -3.35853631 -1.54311128 0 0 Z " fill="#FFB64B" transform="translate(140,45)"/>
<path d="M0 0 C0.99 0.103125 1.98 0.20625 3 0.3125 C5 3.3125 5 3.3125 4.75 5.875 C4 8.3125 4 8.3125 2 10.3125 C-1.29714793 9.98278521 -2.6226839 9.6898161 -5 7.3125 C-5.25 4.8125 -5.25 4.8125 -5 2.3125 C-3 0.3125 -3 0.3125 0 0 Z " fill="#FFB650" transform="translate(127,25.6875)"/>
<path d="M0 0 C2.5625 0.1875 2.5625 0.1875 4.5625 2.1875 C4.8125 5.1875 4.8125 5.1875 4.5625 8.1875 C2.5625 10.1875 2.5625 10.1875 0.125 10.5625 C-2.4375 10.1875 -2.4375 10.1875 -4.375 8.5 C-5.4375 6.1875 -5.4375 6.1875 -4.6875 3.5 C-2.91689262 0.22437636 -2.91689262 0.22437636 0 0 Z " fill="#FFB848" transform="translate(109.4375,51.8125)"/>
<path d="M0 0 C4 2 4 2 5.25 4.25 C6.07592799 7.27840261 6.14534994 9.8749763 6 13 C4.02 13.99 2.04 14.98 0 16 C0 10.72 0 5.44 0 0 Z " fill="#FEBA48" transform="translate(74,5)"/>
</svg>
